<mxfile host="app.diagrams.net" agent="Mozilla/5.0 (Windows NT 10.0; Win64; x64) AppleWebKit/537.36 (KHTML, like Gecko) Chrome/132.0.0.0 Safari/537.36 OPR/117.0.0.0" version="26.1.1">
  <diagram name="Trang-1" id="BL7R3S4sPaGHVnIarUK6">
    <mxGraphModel grid="1" page="1" gridSize="10" guides="1" tooltips="1" connect="1" arrows="1" fold="1" pageScale="1" pageWidth="827" pageHeight="1169" math="0" shadow="0">
      <root>
        <mxCell id="0" />
        <mxCell id="1" parent="0" />
        <mxCell id="4Q-5mL9npzRY83NDGsn7-10" style="edgeStyle=orthogonalEdgeStyle;rounded=0;orthogonalLoop=1;jettySize=auto;html=1;" edge="1" parent="1" source="4Q-5mL9npzRY83NDGsn7-1" target="4Q-5mL9npzRY83NDGsn7-5">
          <mxGeometry relative="1" as="geometry" />
        </mxCell>
        <mxCell id="4Q-5mL9npzRY83NDGsn7-1" value="" style="strokeWidth=2;html=1;shape=mxgraph.flowchart.start_2;whiteSpace=wrap;" vertex="1" parent="1">
          <mxGeometry x="320" y="50" width="40" height="40" as="geometry" />
        </mxCell>
        <mxCell id="4Q-5mL9npzRY83NDGsn7-3" style="edgeStyle=orthogonalEdgeStyle;rounded=0;orthogonalLoop=1;jettySize=auto;html=1;endArrow=none;startFill=0;dashed=1;dashPattern=12 12;" edge="1" parent="1" source="4Q-5mL9npzRY83NDGsn7-21" target="4Q-5mL9npzRY83NDGsn7-1">
          <mxGeometry relative="1" as="geometry">
            <mxPoint x="200" y="70" as="sourcePoint" />
          </mxGeometry>
        </mxCell>
        <mxCell id="4Q-5mL9npzRY83NDGsn7-7" style="edgeStyle=orthogonalEdgeStyle;rounded=0;orthogonalLoop=1;jettySize=auto;html=1;" edge="1" parent="1" source="4Q-5mL9npzRY83NDGsn7-5" target="4Q-5mL9npzRY83NDGsn7-6">
          <mxGeometry relative="1" as="geometry" />
        </mxCell>
        <mxCell id="4Q-5mL9npzRY83NDGsn7-5" value="&lt;span id=&quot;docs-internal-guid-2c71a9b3-7fff-f40d-2406-545e6d28bd09&quot;&gt;&lt;span style=&quot;font-size: 13pt; font-family: &amp;quot;Times New Roman&amp;quot;, serif; background-color: transparent; font-variant-numeric: normal; font-variant-east-asian: normal; font-variant-alternates: normal; font-variant-position: normal; font-variant-emoji: normal; vertical-align: baseline; white-space-collapse: preserve;&quot;&gt;Nhập tên tài khoản và mật khẩu&lt;/span&gt;&lt;/span&gt;" style="rounded=1;whiteSpace=wrap;html=1;absoluteArcSize=1;arcSize=14;strokeWidth=2;" vertex="1" parent="1">
          <mxGeometry x="230" y="150" width="220" height="100" as="geometry" />
        </mxCell>
        <mxCell id="4Q-5mL9npzRY83NDGsn7-13" value="&lt;font face=&quot;Times New Roman&quot; style=&quot;font-size: 14px;&quot;&gt;Không&lt;/font&gt;" style="edgeStyle=orthogonalEdgeStyle;rounded=0;orthogonalLoop=1;jettySize=auto;html=1;" edge="1" parent="1" source="4Q-5mL9npzRY83NDGsn7-6" target="4Q-5mL9npzRY83NDGsn7-11">
          <mxGeometry x="-0.0526" relative="1" as="geometry">
            <mxPoint as="offset" />
          </mxGeometry>
        </mxCell>
        <mxCell id="4Q-5mL9npzRY83NDGsn7-17" style="edgeStyle=orthogonalEdgeStyle;rounded=0;orthogonalLoop=1;jettySize=auto;html=1;" edge="1" parent="1" source="4Q-5mL9npzRY83NDGsn7-6" target="4Q-5mL9npzRY83NDGsn7-16">
          <mxGeometry relative="1" as="geometry" />
        </mxCell>
        <mxCell id="4Q-5mL9npzRY83NDGsn7-18" value="&lt;font style=&quot;font-size: 14px;&quot;&gt;Có&lt;/font&gt;" style="edgeLabel;html=1;align=center;verticalAlign=middle;resizable=0;points=[];" connectable="0" vertex="1" parent="4Q-5mL9npzRY83NDGsn7-17">
          <mxGeometry x="-0.0062" y="1" relative="1" as="geometry">
            <mxPoint as="offset" />
          </mxGeometry>
        </mxCell>
        <mxCell id="4Q-5mL9npzRY83NDGsn7-6" value="&lt;font face=&quot;Times New Roman, serif&quot;&gt;&lt;span style=&quot;font-size: 17.3333px; white-space-collapse: preserve;&quot;&gt;Tên tài khoản và mật khẩu chính xác?&lt;/span&gt;&lt;/font&gt;" style="rhombus;whiteSpace=wrap;html=1;" vertex="1" parent="1">
          <mxGeometry x="170" y="330" width="340" height="180" as="geometry" />
        </mxCell>
        <mxCell id="4Q-5mL9npzRY83NDGsn7-12" style="edgeStyle=orthogonalEdgeStyle;rounded=0;orthogonalLoop=1;jettySize=auto;html=1;entryX=1;entryY=0.5;entryDx=0;entryDy=0;" edge="1" parent="1" source="4Q-5mL9npzRY83NDGsn7-11" target="4Q-5mL9npzRY83NDGsn7-5">
          <mxGeometry relative="1" as="geometry">
            <Array as="points">
              <mxPoint x="740" y="200" />
            </Array>
          </mxGeometry>
        </mxCell>
        <mxCell id="4Q-5mL9npzRY83NDGsn7-11" value="&lt;font style=&quot;font-size: 17px;&quot; face=&quot;Times New Roman&quot;&gt;Tài khoản không tồn tại&lt;/font&gt;" style="rounded=1;whiteSpace=wrap;html=1;absoluteArcSize=1;arcSize=14;strokeWidth=2;" vertex="1" parent="1">
          <mxGeometry x="620" y="370" width="260" height="100" as="geometry" />
        </mxCell>
        <mxCell id="4Q-5mL9npzRY83NDGsn7-20" style="edgeStyle=orthogonalEdgeStyle;rounded=0;orthogonalLoop=1;jettySize=auto;html=1;" edge="1" parent="1" source="4Q-5mL9npzRY83NDGsn7-16" target="4Q-5mL9npzRY83NDGsn7-19">
          <mxGeometry relative="1" as="geometry" />
        </mxCell>
        <mxCell id="4Q-5mL9npzRY83NDGsn7-16" value="Hệ thống xác nhận đăng nhập thành công" style="rounded=1;whiteSpace=wrap;html=1;absoluteArcSize=1;arcSize=14;strokeWidth=2;" vertex="1" parent="1">
          <mxGeometry x="230" y="640" width="220" height="100" as="geometry" />
        </mxCell>
        <mxCell id="4Q-5mL9npzRY83NDGsn7-19" value="" style="strokeWidth=2;html=1;shape=mxgraph.flowchart.start_2;whiteSpace=wrap;" vertex="1" parent="1">
          <mxGeometry x="315" y="820" width="50" height="50" as="geometry" />
        </mxCell>
        <mxCell id="4Q-5mL9npzRY83NDGsn7-21" value="Người dùng đã có tài khoản" style="shape=note;whiteSpace=wrap;html=1;backgroundOutline=1;darkOpacity=0.05;" vertex="1" parent="1">
          <mxGeometry x="20" y="20" width="190" height="100" as="geometry" />
        </mxCell>
        <mxCell id="4Q-5mL9npzRY83NDGsn7-22" style="edgeStyle=orthogonalEdgeStyle;rounded=0;orthogonalLoop=1;jettySize=auto;html=1;" edge="1" parent="1" source="4Q-5mL9npzRY83NDGsn7-23" target="4Q-5mL9npzRY83NDGsn7-26">
          <mxGeometry relative="1" as="geometry" />
        </mxCell>
        <mxCell id="4Q-5mL9npzRY83NDGsn7-23" value="" style="strokeWidth=2;html=1;shape=mxgraph.flowchart.start_2;whiteSpace=wrap;" vertex="1" parent="1">
          <mxGeometry x="1520" y="40" width="40" height="40" as="geometry" />
        </mxCell>
        <mxCell id="4Q-5mL9npzRY83NDGsn7-24" style="edgeStyle=orthogonalEdgeStyle;rounded=0;orthogonalLoop=1;jettySize=auto;html=1;endArrow=none;startFill=0;dashed=1;dashPattern=12 12;" edge="1" parent="1" source="4Q-5mL9npzRY83NDGsn7-36" target="4Q-5mL9npzRY83NDGsn7-23">
          <mxGeometry relative="1" as="geometry">
            <mxPoint x="1240" y="60" as="sourcePoint" />
          </mxGeometry>
        </mxCell>
        <mxCell id="4Q-5mL9npzRY83NDGsn7-25" style="edgeStyle=orthogonalEdgeStyle;rounded=0;orthogonalLoop=1;jettySize=auto;html=1;" edge="1" parent="1" source="4Q-5mL9npzRY83NDGsn7-26" target="4Q-5mL9npzRY83NDGsn7-32">
          <mxGeometry relative="1" as="geometry">
            <mxPoint x="1540" y="370" as="targetPoint" />
          </mxGeometry>
        </mxCell>
        <mxCell id="4Q-5mL9npzRY83NDGsn7-26" value="&lt;font face=&quot;Times New Roman, serif&quot;&gt;&lt;span style=&quot;font-size: 17.3333px; white-space-collapse: preserve;&quot;&gt;Truy cập vào trang đặt vé&lt;/span&gt;&lt;/font&gt;" style="rounded=1;whiteSpace=wrap;html=1;absoluteArcSize=1;arcSize=14;strokeWidth=2;" vertex="1" parent="1">
          <mxGeometry x="1430" y="140" width="220" height="100" as="geometry" />
        </mxCell>
        <mxCell id="4Q-5mL9npzRY83NDGsn7-28" style="edgeStyle=orthogonalEdgeStyle;rounded=0;orthogonalLoop=1;jettySize=auto;html=1;" edge="1" parent="1" source="4Q-5mL9npzRY83NDGsn7-30" target="4Q-5mL9npzRY83NDGsn7-34">
          <mxGeometry relative="1" as="geometry" />
        </mxCell>
        <mxCell id="4Q-5mL9npzRY83NDGsn7-29" value="&lt;font style=&quot;font-size: 14px;&quot;&gt;Có&lt;/font&gt;" style="edgeLabel;html=1;align=center;verticalAlign=middle;resizable=0;points=[];" connectable="0" vertex="1" parent="4Q-5mL9npzRY83NDGsn7-28">
          <mxGeometry x="-0.0062" y="1" relative="1" as="geometry">
            <mxPoint as="offset" />
          </mxGeometry>
        </mxCell>
        <mxCell id="4Q-5mL9npzRY83NDGsn7-47" value="" style="edgeStyle=orthogonalEdgeStyle;rounded=0;orthogonalLoop=1;jettySize=auto;html=1;" edge="1" parent="1" source="4Q-5mL9npzRY83NDGsn7-30" target="4Q-5mL9npzRY83NDGsn7-46">
          <mxGeometry relative="1" as="geometry" />
        </mxCell>
        <mxCell id="4Q-5mL9npzRY83NDGsn7-50" value="Không" style="edgeLabel;html=1;align=center;verticalAlign=middle;resizable=0;points=[];" connectable="0" vertex="1" parent="4Q-5mL9npzRY83NDGsn7-47">
          <mxGeometry x="0.4188" y="1" relative="1" as="geometry">
            <mxPoint x="-24" y="1" as="offset" />
          </mxGeometry>
        </mxCell>
        <mxCell id="4Q-5mL9npzRY83NDGsn7-30" value="&lt;font face=&quot;Times New Roman&quot; style=&quot;font-size: 16px;&quot;&gt;Còn đủ vé &lt;/font&gt;&lt;font face=&quot;Times New Roman&quot; style=&quot;font-size: 14px;&quot;&gt;?&lt;/font&gt;" style="rhombus;whiteSpace=wrap;html=1;" vertex="1" parent="1">
          <mxGeometry x="1370" y="600" width="340" height="180" as="geometry" />
        </mxCell>
        <mxCell id="4Q-5mL9npzRY83NDGsn7-39" style="edgeStyle=orthogonalEdgeStyle;rounded=0;orthogonalLoop=1;jettySize=auto;html=1;" edge="1" parent="1" source="4Q-5mL9npzRY83NDGsn7-32" target="4Q-5mL9npzRY83NDGsn7-38">
          <mxGeometry relative="1" as="geometry" />
        </mxCell>
        <mxCell id="4Q-5mL9npzRY83NDGsn7-32" value="&lt;font style=&quot;font-size: 17px;&quot; face=&quot;Times New Roman&quot;&gt;Chọn phim và suất chiếu&lt;/font&gt;" style="rounded=1;whiteSpace=wrap;html=1;absoluteArcSize=1;arcSize=14;strokeWidth=2;" vertex="1" parent="1">
          <mxGeometry x="1410" y="290" width="260" height="100" as="geometry" />
        </mxCell>
        <mxCell id="4Q-5mL9npzRY83NDGsn7-33" style="edgeStyle=orthogonalEdgeStyle;rounded=0;orthogonalLoop=1;jettySize=auto;html=1;" edge="1" parent="1" source="4Q-5mL9npzRY83NDGsn7-41" target="4Q-5mL9npzRY83NDGsn7-51">
          <mxGeometry relative="1" as="geometry">
            <mxPoint x="1540" y="1280" as="targetPoint" />
          </mxGeometry>
        </mxCell>
        <mxCell id="4Q-5mL9npzRY83NDGsn7-43" value="Có" style="edgeLabel;html=1;align=center;verticalAlign=middle;resizable=0;points=[];" connectable="0" vertex="1" parent="4Q-5mL9npzRY83NDGsn7-33">
          <mxGeometry x="-0.0909" y="-1" relative="1" as="geometry">
            <mxPoint as="offset" />
          </mxGeometry>
        </mxCell>
        <mxCell id="4Q-5mL9npzRY83NDGsn7-34" value="&lt;font style=&quot;font-size: 16px;&quot;&gt;Chọn ghế ngồi&lt;/font&gt;" style="rounded=1;whiteSpace=wrap;html=1;absoluteArcSize=1;arcSize=14;strokeWidth=2;" vertex="1" parent="1">
          <mxGeometry x="1430" y="870" width="220" height="100" as="geometry" />
        </mxCell>
        <mxCell id="4Q-5mL9npzRY83NDGsn7-36" value="Người dùng đã đăng nhập" style="shape=note;whiteSpace=wrap;html=1;backgroundOutline=1;darkOpacity=0.05;" vertex="1" parent="1">
          <mxGeometry x="1060" y="10" width="190" height="100" as="geometry" />
        </mxCell>
        <mxCell id="4Q-5mL9npzRY83NDGsn7-40" style="edgeStyle=orthogonalEdgeStyle;rounded=0;orthogonalLoop=1;jettySize=auto;html=1;" edge="1" parent="1" source="4Q-5mL9npzRY83NDGsn7-38" target="4Q-5mL9npzRY83NDGsn7-30">
          <mxGeometry relative="1" as="geometry" />
        </mxCell>
        <mxCell id="4Q-5mL9npzRY83NDGsn7-38" value="&lt;font style=&quot;font-size: 17px;&quot; face=&quot;Times New Roman&quot;&gt;Chọn số lượng vé&lt;/font&gt;" style="rounded=1;whiteSpace=wrap;html=1;absoluteArcSize=1;arcSize=14;strokeWidth=2;" vertex="1" parent="1">
          <mxGeometry x="1410" y="450" width="260" height="100" as="geometry" />
        </mxCell>
        <mxCell id="4Q-5mL9npzRY83NDGsn7-42" value="" style="edgeStyle=orthogonalEdgeStyle;rounded=0;orthogonalLoop=1;jettySize=auto;html=1;" edge="1" parent="1" source="4Q-5mL9npzRY83NDGsn7-34" target="4Q-5mL9npzRY83NDGsn7-41">
          <mxGeometry relative="1" as="geometry">
            <mxPoint x="1540" y="970" as="sourcePoint" />
            <mxPoint x="1540" y="1340" as="targetPoint" />
          </mxGeometry>
        </mxCell>
        <mxCell id="4Q-5mL9npzRY83NDGsn7-45" value="" style="edgeStyle=orthogonalEdgeStyle;rounded=0;orthogonalLoop=1;jettySize=auto;html=1;" edge="1" parent="1" source="4Q-5mL9npzRY83NDGsn7-41" target="4Q-5mL9npzRY83NDGsn7-44">
          <mxGeometry relative="1" as="geometry" />
        </mxCell>
        <mxCell id="4Q-5mL9npzRY83NDGsn7-49" value="Không" style="edgeLabel;html=1;align=center;verticalAlign=middle;resizable=0;points=[];" connectable="0" vertex="1" parent="4Q-5mL9npzRY83NDGsn7-45">
          <mxGeometry x="-0.1133" y="-2" relative="1" as="geometry">
            <mxPoint x="3" y="-2" as="offset" />
          </mxGeometry>
        </mxCell>
        <mxCell id="4Q-5mL9npzRY83NDGsn7-41" value="Còn đủ ghế ?" style="rhombus;whiteSpace=wrap;html=1;" vertex="1" parent="1">
          <mxGeometry x="1360" y="1030" width="360" height="160" as="geometry" />
        </mxCell>
        <mxCell id="4Q-5mL9npzRY83NDGsn7-89" value="" style="edgeStyle=orthogonalEdgeStyle;rounded=0;orthogonalLoop=1;jettySize=auto;html=1;" edge="1" parent="1" source="4Q-5mL9npzRY83NDGsn7-44" target="4Q-5mL9npzRY83NDGsn7-88">
          <mxGeometry relative="1" as="geometry" />
        </mxCell>
        <mxCell id="4Q-5mL9npzRY83NDGsn7-44" value="Thông báo hết ghế" style="whiteSpace=wrap;html=1;" vertex="1" parent="1">
          <mxGeometry x="1790" y="1080" width="120" height="60" as="geometry" />
        </mxCell>
        <mxCell id="4Q-5mL9npzRY83NDGsn7-87" value="" style="edgeStyle=orthogonalEdgeStyle;rounded=0;orthogonalLoop=1;jettySize=auto;html=1;" edge="1" parent="1" source="4Q-5mL9npzRY83NDGsn7-46" target="4Q-5mL9npzRY83NDGsn7-86">
          <mxGeometry relative="1" as="geometry" />
        </mxCell>
        <mxCell id="4Q-5mL9npzRY83NDGsn7-46" value="Thông báo hết vé" style="whiteSpace=wrap;html=1;" vertex="1" parent="1">
          <mxGeometry x="1800" y="660" width="120" height="60" as="geometry" />
        </mxCell>
        <mxCell id="4Q-5mL9npzRY83NDGsn7-53" style="edgeStyle=orthogonalEdgeStyle;rounded=0;orthogonalLoop=1;jettySize=auto;html=1;" edge="1" parent="1" source="4Q-5mL9npzRY83NDGsn7-51" target="4Q-5mL9npzRY83NDGsn7-52">
          <mxGeometry relative="1" as="geometry" />
        </mxCell>
        <mxCell id="4Q-5mL9npzRY83NDGsn7-51" value="đặt vé thành công" style="rounded=1;whiteSpace=wrap;html=1;" vertex="1" parent="1">
          <mxGeometry x="1460" y="1240" width="160" height="60" as="geometry" />
        </mxCell>
        <mxCell id="4Q-5mL9npzRY83NDGsn7-52" value="" style="ellipse;whiteSpace=wrap;html=1;aspect=fixed;" vertex="1" parent="1">
          <mxGeometry x="1520" y="1360" width="40" height="40" as="geometry" />
        </mxCell>
        <mxCell id="4Q-5mL9npzRY83NDGsn7-55" style="edgeStyle=orthogonalEdgeStyle;rounded=0;orthogonalLoop=1;jettySize=auto;html=1;" edge="1" parent="1" source="4Q-5mL9npzRY83NDGsn7-56" target="4Q-5mL9npzRY83NDGsn7-59">
          <mxGeometry relative="1" as="geometry" />
        </mxCell>
        <mxCell id="4Q-5mL9npzRY83NDGsn7-56" value="" style="strokeWidth=2;html=1;shape=mxgraph.flowchart.start_2;whiteSpace=wrap;" vertex="1" parent="1">
          <mxGeometry x="2520" y="39" width="40" height="40" as="geometry" />
        </mxCell>
        <mxCell id="4Q-5mL9npzRY83NDGsn7-57" style="edgeStyle=orthogonalEdgeStyle;rounded=0;orthogonalLoop=1;jettySize=auto;html=1;endArrow=none;startFill=0;dashed=1;dashPattern=12 12;" edge="1" parent="1" source="4Q-5mL9npzRY83NDGsn7-70" target="4Q-5mL9npzRY83NDGsn7-56">
          <mxGeometry relative="1" as="geometry">
            <mxPoint x="2240" y="59" as="sourcePoint" />
          </mxGeometry>
        </mxCell>
        <mxCell id="4Q-5mL9npzRY83NDGsn7-58" style="edgeStyle=orthogonalEdgeStyle;rounded=0;orthogonalLoop=1;jettySize=auto;html=1;" edge="1" parent="1" source="4Q-5mL9npzRY83NDGsn7-59" target="4Q-5mL9npzRY83NDGsn7-72">
          <mxGeometry relative="1" as="geometry">
            <mxPoint x="2540" y="289" as="targetPoint" />
          </mxGeometry>
        </mxCell>
        <mxCell id="4Q-5mL9npzRY83NDGsn7-59" value="&lt;font face=&quot;Times New Roman, serif&quot;&gt;&lt;span style=&quot;font-size: 17.3333px; white-space-collapse: preserve;&quot;&gt;Chọn phương thức thanh toán&lt;/span&gt;&lt;/font&gt;" style="rounded=1;whiteSpace=wrap;html=1;absoluteArcSize=1;arcSize=14;strokeWidth=2;" vertex="1" parent="1">
          <mxGeometry x="2430" y="139" width="220" height="100" as="geometry" />
        </mxCell>
        <mxCell id="4Q-5mL9npzRY83NDGsn7-60" style="edgeStyle=orthogonalEdgeStyle;rounded=0;orthogonalLoop=1;jettySize=auto;html=1;" edge="1" parent="1" source="4Q-5mL9npzRY83NDGsn7-64" target="4Q-5mL9npzRY83NDGsn7-69">
          <mxGeometry relative="1" as="geometry" />
        </mxCell>
        <mxCell id="4Q-5mL9npzRY83NDGsn7-61" value="&lt;font style=&quot;font-size: 14px;&quot;&gt;Có&lt;/font&gt;" style="edgeLabel;html=1;align=center;verticalAlign=middle;resizable=0;points=[];" connectable="0" vertex="1" parent="4Q-5mL9npzRY83NDGsn7-60">
          <mxGeometry x="-0.0062" y="1" relative="1" as="geometry">
            <mxPoint as="offset" />
          </mxGeometry>
        </mxCell>
        <mxCell id="4Q-5mL9npzRY83NDGsn7-82" value="Không" style="edgeLabel;html=1;align=center;verticalAlign=middle;resizable=0;points=[];" connectable="0" vertex="1" parent="4Q-5mL9npzRY83NDGsn7-60">
          <mxGeometry x="-0.0119" relative="1" as="geometry">
            <mxPoint as="offset" />
          </mxGeometry>
        </mxCell>
        <mxCell id="4Q-5mL9npzRY83NDGsn7-62" value="" style="edgeStyle=orthogonalEdgeStyle;rounded=0;orthogonalLoop=1;jettySize=auto;html=1;" edge="1" parent="1" source="4Q-5mL9npzRY83NDGsn7-64" target="4Q-5mL9npzRY83NDGsn7-78">
          <mxGeometry relative="1" as="geometry" />
        </mxCell>
        <mxCell id="4Q-5mL9npzRY83NDGsn7-63" value="Có" style="edgeLabel;html=1;align=center;verticalAlign=middle;resizable=0;points=[];" connectable="0" vertex="1" parent="4Q-5mL9npzRY83NDGsn7-62">
          <mxGeometry x="0.4188" y="1" relative="1" as="geometry">
            <mxPoint x="-24" y="1" as="offset" />
          </mxGeometry>
        </mxCell>
        <mxCell id="4Q-5mL9npzRY83NDGsn7-64" value="&lt;font face=&quot;Times New Roman&quot;&gt;&lt;span style=&quot;font-size: 16px;&quot;&gt;Có mã giảm giá ?&lt;/span&gt;&lt;/font&gt;" style="rhombus;whiteSpace=wrap;html=1;" vertex="1" parent="1">
          <mxGeometry x="2370" y="460" width="340" height="180" as="geometry" />
        </mxCell>
        <mxCell id="4Q-5mL9npzRY83NDGsn7-67" style="edgeStyle=orthogonalEdgeStyle;rounded=0;orthogonalLoop=1;jettySize=auto;html=1;" edge="1" parent="1" source="4Q-5mL9npzRY83NDGsn7-76" target="4Q-5mL9npzRY83NDGsn7-80">
          <mxGeometry relative="1" as="geometry">
            <mxPoint x="2540" y="1140" as="targetPoint" />
          </mxGeometry>
        </mxCell>
        <mxCell id="4Q-5mL9npzRY83NDGsn7-68" value="Có" style="edgeLabel;html=1;align=center;verticalAlign=middle;resizable=0;points=[];" connectable="0" vertex="1" parent="4Q-5mL9npzRY83NDGsn7-67">
          <mxGeometry x="-0.0909" y="-1" relative="1" as="geometry">
            <mxPoint as="offset" />
          </mxGeometry>
        </mxCell>
        <mxCell id="4Q-5mL9npzRY83NDGsn7-69" value="&lt;span style=&quot;font-size: 16px;&quot;&gt;Xác nhận giao dịch&lt;/span&gt;" style="rounded=1;whiteSpace=wrap;html=1;absoluteArcSize=1;arcSize=14;strokeWidth=2;" vertex="1" parent="1">
          <mxGeometry x="2430" y="730" width="220" height="91" as="geometry" />
        </mxCell>
        <mxCell id="4Q-5mL9npzRY83NDGsn7-70" value="Người dùng đặt vé thành công" style="shape=note;whiteSpace=wrap;html=1;backgroundOutline=1;darkOpacity=0.05;" vertex="1" parent="1">
          <mxGeometry x="2060" y="9" width="190" height="100" as="geometry" />
        </mxCell>
        <mxCell id="4Q-5mL9npzRY83NDGsn7-71" style="edgeStyle=orthogonalEdgeStyle;rounded=0;orthogonalLoop=1;jettySize=auto;html=1;" edge="1" parent="1" source="4Q-5mL9npzRY83NDGsn7-72" target="4Q-5mL9npzRY83NDGsn7-64">
          <mxGeometry relative="1" as="geometry" />
        </mxCell>
        <mxCell id="4Q-5mL9npzRY83NDGsn7-72" value="&lt;font style=&quot;font-size: 17px;&quot; face=&quot;Times New Roman&quot;&gt;Nhập thông tin thanh toán&lt;/font&gt;" style="rounded=1;whiteSpace=wrap;html=1;absoluteArcSize=1;arcSize=14;strokeWidth=2;" vertex="1" parent="1">
          <mxGeometry x="2410" y="310" width="260" height="100" as="geometry" />
        </mxCell>
        <mxCell id="4Q-5mL9npzRY83NDGsn7-73" value="" style="edgeStyle=orthogonalEdgeStyle;rounded=0;orthogonalLoop=1;jettySize=auto;html=1;" edge="1" parent="1" source="4Q-5mL9npzRY83NDGsn7-69" target="4Q-5mL9npzRY83NDGsn7-76">
          <mxGeometry relative="1" as="geometry">
            <mxPoint x="2540" y="830" as="sourcePoint" />
            <mxPoint x="2540" y="1200" as="targetPoint" />
          </mxGeometry>
        </mxCell>
        <mxCell id="4Q-5mL9npzRY83NDGsn7-74" value="" style="edgeStyle=orthogonalEdgeStyle;rounded=0;orthogonalLoop=1;jettySize=auto;html=1;" edge="1" parent="1" source="4Q-5mL9npzRY83NDGsn7-76" target="4Q-5mL9npzRY83NDGsn7-77">
          <mxGeometry relative="1" as="geometry" />
        </mxCell>
        <mxCell id="4Q-5mL9npzRY83NDGsn7-75" value="Không" style="edgeLabel;html=1;align=center;verticalAlign=middle;resizable=0;points=[];" connectable="0" vertex="1" parent="4Q-5mL9npzRY83NDGsn7-74">
          <mxGeometry x="-0.1133" y="-2" relative="1" as="geometry">
            <mxPoint x="3" y="-2" as="offset" />
          </mxGeometry>
        </mxCell>
        <mxCell id="4Q-5mL9npzRY83NDGsn7-76" value="Giao dịch thành công ?" style="rhombus;whiteSpace=wrap;html=1;" vertex="1" parent="1">
          <mxGeometry x="2360" y="890" width="360" height="160" as="geometry" />
        </mxCell>
        <mxCell id="4Q-5mL9npzRY83NDGsn7-85" value="" style="edgeStyle=orthogonalEdgeStyle;rounded=0;orthogonalLoop=1;jettySize=auto;html=1;" edge="1" parent="1" source="4Q-5mL9npzRY83NDGsn7-77" target="4Q-5mL9npzRY83NDGsn7-84">
          <mxGeometry relative="1" as="geometry" />
        </mxCell>
        <mxCell id="4Q-5mL9npzRY83NDGsn7-77" value="Thông báo thất bại" style="whiteSpace=wrap;html=1;" vertex="1" parent="1">
          <mxGeometry x="2790" y="940" width="120" height="60" as="geometry" />
        </mxCell>
        <mxCell id="4Q-5mL9npzRY83NDGsn7-83" style="edgeStyle=orthogonalEdgeStyle;rounded=0;orthogonalLoop=1;jettySize=auto;html=1;entryX=1;entryY=0.75;entryDx=0;entryDy=0;" edge="1" parent="1" source="4Q-5mL9npzRY83NDGsn7-78" target="4Q-5mL9npzRY83NDGsn7-69">
          <mxGeometry relative="1" as="geometry">
            <Array as="points">
              <mxPoint x="2860" y="771" />
              <mxPoint x="2650" y="771" />
            </Array>
          </mxGeometry>
        </mxCell>
        <mxCell id="4Q-5mL9npzRY83NDGsn7-78" value="Thông báo hết vé" style="whiteSpace=wrap;html=1;" vertex="1" parent="1">
          <mxGeometry x="2800" y="520" width="120" height="60" as="geometry" />
        </mxCell>
        <mxCell id="4Q-5mL9npzRY83NDGsn7-79" style="edgeStyle=orthogonalEdgeStyle;rounded=0;orthogonalLoop=1;jettySize=auto;html=1;" edge="1" parent="1" source="4Q-5mL9npzRY83NDGsn7-80" target="4Q-5mL9npzRY83NDGsn7-81">
          <mxGeometry relative="1" as="geometry" />
        </mxCell>
        <mxCell id="4Q-5mL9npzRY83NDGsn7-80" value="Thanh toán thành công" style="rounded=1;whiteSpace=wrap;html=1;" vertex="1" parent="1">
          <mxGeometry x="2460" y="1100" width="160" height="60" as="geometry" />
        </mxCell>
        <mxCell id="4Q-5mL9npzRY83NDGsn7-81" value="" style="ellipse;whiteSpace=wrap;html=1;aspect=fixed;" vertex="1" parent="1">
          <mxGeometry x="2520" y="1220" width="40" height="40" as="geometry" />
        </mxCell>
        <mxCell id="4Q-5mL9npzRY83NDGsn7-84" value="" style="ellipse;whiteSpace=wrap;html=1;" vertex="1" parent="1">
          <mxGeometry x="2970" y="949" width="40" height="42" as="geometry" />
        </mxCell>
        <mxCell id="4Q-5mL9npzRY83NDGsn7-86" value="" style="ellipse;whiteSpace=wrap;html=1;" vertex="1" parent="1">
          <mxGeometry x="1840" y="740" width="40" height="40" as="geometry" />
        </mxCell>
        <mxCell id="4Q-5mL9npzRY83NDGsn7-88" value="" style="ellipse;whiteSpace=wrap;html=1;" vertex="1" parent="1">
          <mxGeometry x="1830" y="1170" width="40" height="40" as="geometry" />
        </mxCell>
        <mxCell id="4Q-5mL9npzRY83NDGsn7-90" style="edgeStyle=orthogonalEdgeStyle;rounded=0;orthogonalLoop=1;jettySize=auto;html=1;" edge="1" parent="1" source="4Q-5mL9npzRY83NDGsn7-91" target="4Q-5mL9npzRY83NDGsn7-94">
          <mxGeometry relative="1" as="geometry" />
        </mxCell>
        <mxCell id="4Q-5mL9npzRY83NDGsn7-91" value="" style="strokeWidth=2;html=1;shape=mxgraph.flowchart.start_2;whiteSpace=wrap;" vertex="1" parent="1">
          <mxGeometry x="515" y="1601" width="40" height="40" as="geometry" />
        </mxCell>
        <mxCell id="4Q-5mL9npzRY83NDGsn7-92" style="edgeStyle=orthogonalEdgeStyle;rounded=0;orthogonalLoop=1;jettySize=auto;html=1;endArrow=none;startFill=0;dashed=1;dashPattern=12 12;" edge="1" parent="1" source="4Q-5mL9npzRY83NDGsn7-105" target="4Q-5mL9npzRY83NDGsn7-91">
          <mxGeometry relative="1" as="geometry">
            <mxPoint x="235" y="1621" as="sourcePoint" />
          </mxGeometry>
        </mxCell>
        <mxCell id="4Q-5mL9npzRY83NDGsn7-93" style="edgeStyle=orthogonalEdgeStyle;rounded=0;orthogonalLoop=1;jettySize=auto;html=1;" edge="1" parent="1" source="4Q-5mL9npzRY83NDGsn7-94" target="4Q-5mL9npzRY83NDGsn7-101">
          <mxGeometry relative="1" as="geometry">
            <mxPoint x="535" y="1931" as="targetPoint" />
          </mxGeometry>
        </mxCell>
        <mxCell id="4Q-5mL9npzRY83NDGsn7-94" value="&lt;font face=&quot;Times New Roman, serif&quot;&gt;&lt;span style=&quot;font-size: 17.3333px; white-space-collapse: preserve;&quot;&gt;Truy cập trang quản lý phim&lt;/span&gt;&lt;/font&gt;" style="rounded=1;whiteSpace=wrap;html=1;absoluteArcSize=1;arcSize=14;strokeWidth=2;" vertex="1" parent="1">
          <mxGeometry x="425" y="1701" width="220" height="100" as="geometry" />
        </mxCell>
        <mxCell id="4Q-5mL9npzRY83NDGsn7-95" style="edgeStyle=orthogonalEdgeStyle;rounded=0;orthogonalLoop=1;jettySize=auto;html=1;" edge="1" parent="1" source="4Q-5mL9npzRY83NDGsn7-99" target="4Q-5mL9npzRY83NDGsn7-126">
          <mxGeometry relative="1" as="geometry">
            <mxPoint x="535" y="2271" as="targetPoint" />
          </mxGeometry>
        </mxCell>
        <mxCell id="4Q-5mL9npzRY83NDGsn7-97" value="" style="edgeStyle=orthogonalEdgeStyle;rounded=0;orthogonalLoop=1;jettySize=auto;html=1;" edge="1" parent="1" source="4Q-5mL9npzRY83NDGsn7-99" target="4Q-5mL9npzRY83NDGsn7-113">
          <mxGeometry relative="1" as="geometry" />
        </mxCell>
        <mxCell id="4Q-5mL9npzRY83NDGsn7-98" value="Không" style="edgeLabel;html=1;align=center;verticalAlign=middle;resizable=0;points=[];" connectable="0" vertex="1" parent="4Q-5mL9npzRY83NDGsn7-97">
          <mxGeometry x="0.4188" y="1" relative="1" as="geometry">
            <mxPoint x="-24" y="1" as="offset" />
          </mxGeometry>
        </mxCell>
        <mxCell id="4Q-5mL9npzRY83NDGsn7-99" value="&lt;font face=&quot;Times New Roman&quot;&gt;&lt;span style=&quot;font-size: 16px;&quot;&gt;Thông tin chính xác ?&lt;/span&gt;&lt;/font&gt;" style="rhombus;whiteSpace=wrap;html=1;" vertex="1" parent="1">
          <mxGeometry x="365" y="2011" width="340" height="180" as="geometry" />
        </mxCell>
        <mxCell id="4Q-5mL9npzRY83NDGsn7-100" style="edgeStyle=orthogonalEdgeStyle;rounded=0;orthogonalLoop=1;jettySize=auto;html=1;" edge="1" parent="1" source="4Q-5mL9npzRY83NDGsn7-101" target="4Q-5mL9npzRY83NDGsn7-99">
          <mxGeometry relative="1" as="geometry" />
        </mxCell>
        <mxCell id="4Q-5mL9npzRY83NDGsn7-101" value="&lt;font style=&quot;font-size: 17px;&quot; face=&quot;Times New Roman&quot;&gt;Chọn thao tác Thêm/Sửa/Xoá&lt;/font&gt;" style="rounded=1;whiteSpace=wrap;html=1;absoluteArcSize=1;arcSize=14;strokeWidth=2;" vertex="1" parent="1">
          <mxGeometry x="405" y="1851" width="260" height="100" as="geometry" />
        </mxCell>
        <mxCell id="4Q-5mL9npzRY83NDGsn7-105" value="Admin đã đăng nhập" style="shape=note;whiteSpace=wrap;html=1;backgroundOutline=1;darkOpacity=0.05;" vertex="1" parent="1">
          <mxGeometry x="55" y="1571" width="190" height="100" as="geometry" />
        </mxCell>
        <mxCell id="4Q-5mL9npzRY83NDGsn7-106" style="edgeStyle=orthogonalEdgeStyle;rounded=0;orthogonalLoop=1;jettySize=auto;html=1;" edge="1" parent="1" source="4Q-5mL9npzRY83NDGsn7-107" target="4Q-5mL9npzRY83NDGsn7-99">
          <mxGeometry relative="1" as="geometry" />
        </mxCell>
        <mxCell id="4Q-5mL9npzRY83NDGsn7-107" value="&lt;font face=&quot;Times New Roman&quot;&gt;&lt;span style=&quot;font-size: 17px;&quot;&gt;Điển thông tin&lt;/span&gt;&lt;/font&gt;" style="rounded=1;whiteSpace=wrap;html=1;absoluteArcSize=1;arcSize=14;strokeWidth=2;" vertex="1" parent="1">
          <mxGeometry x="20" y="2051" width="260" height="100" as="geometry" />
        </mxCell>
        <mxCell id="4Q-5mL9npzRY83NDGsn7-118" value="" style="edgeStyle=orthogonalEdgeStyle;rounded=0;orthogonalLoop=1;jettySize=auto;html=1;" edge="1" parent="1" source="4Q-5mL9npzRY83NDGsn7-113" target="4Q-5mL9npzRY83NDGsn7-117">
          <mxGeometry relative="1" as="geometry" />
        </mxCell>
        <mxCell id="4Q-5mL9npzRY83NDGsn7-113" value="Thông báo không tìm thấy phim" style="whiteSpace=wrap;html=1;" vertex="1" parent="1">
          <mxGeometry x="795" y="2071" width="120" height="60" as="geometry" />
        </mxCell>
        <mxCell id="4Q-5mL9npzRY83NDGsn7-117" value="" style="ellipse;whiteSpace=wrap;html=1;" vertex="1" parent="1">
          <mxGeometry x="835" y="2221" width="40" height="40" as="geometry" />
        </mxCell>
        <mxCell id="4Q-5mL9npzRY83NDGsn7-129" value="" style="edgeStyle=orthogonalEdgeStyle;rounded=0;orthogonalLoop=1;jettySize=auto;html=1;" edge="1" parent="1" source="4Q-5mL9npzRY83NDGsn7-126" target="4Q-5mL9npzRY83NDGsn7-128">
          <mxGeometry relative="1" as="geometry" />
        </mxCell>
        <mxCell id="4Q-5mL9npzRY83NDGsn7-126" value="&lt;font face=&quot;Times New Roman&quot;&gt;&lt;span style=&quot;font-size: 17px;&quot;&gt;Hoàn tất thao tác&lt;/span&gt;&lt;/font&gt;" style="rounded=1;whiteSpace=wrap;html=1;absoluteArcSize=1;arcSize=14;strokeWidth=2;" vertex="1" parent="1">
          <mxGeometry x="405" y="2281" width="260" height="100" as="geometry" />
        </mxCell>
        <mxCell id="4Q-5mL9npzRY83NDGsn7-128" value="" style="ellipse;whiteSpace=wrap;html=1;rounded=1;arcSize=14;strokeWidth=2;" vertex="1" parent="1">
          <mxGeometry x="515" y="2429" width="40" height="40" as="geometry" />
        </mxCell>
        <mxCell id="4Q-5mL9npzRY83NDGsn7-130" style="edgeStyle=orthogonalEdgeStyle;rounded=0;orthogonalLoop=1;jettySize=auto;html=1;" edge="1" parent="1" source="4Q-5mL9npzRY83NDGsn7-131" target="4Q-5mL9npzRY83NDGsn7-134">
          <mxGeometry relative="1" as="geometry" />
        </mxCell>
        <mxCell id="4Q-5mL9npzRY83NDGsn7-131" value="" style="strokeWidth=2;html=1;shape=mxgraph.flowchart.start_2;whiteSpace=wrap;" vertex="1" parent="1">
          <mxGeometry x="1495" y="1578" width="40" height="40" as="geometry" />
        </mxCell>
        <mxCell id="4Q-5mL9npzRY83NDGsn7-132" style="edgeStyle=orthogonalEdgeStyle;rounded=0;orthogonalLoop=1;jettySize=auto;html=1;endArrow=none;startFill=0;dashed=1;dashPattern=12 12;" edge="1" parent="1" source="4Q-5mL9npzRY83NDGsn7-141" target="4Q-5mL9npzRY83NDGsn7-131">
          <mxGeometry relative="1" as="geometry">
            <mxPoint x="1215" y="1598" as="sourcePoint" />
          </mxGeometry>
        </mxCell>
        <mxCell id="4Q-5mL9npzRY83NDGsn7-133" style="edgeStyle=orthogonalEdgeStyle;rounded=0;orthogonalLoop=1;jettySize=auto;html=1;" edge="1" parent="1" source="4Q-5mL9npzRY83NDGsn7-134" target="4Q-5mL9npzRY83NDGsn7-140">
          <mxGeometry relative="1" as="geometry">
            <mxPoint x="1515" y="1908" as="targetPoint" />
          </mxGeometry>
        </mxCell>
        <mxCell id="4Q-5mL9npzRY83NDGsn7-134" value="&lt;font face=&quot;Times New Roman, serif&quot;&gt;&lt;span style=&quot;font-size: 17.3333px; white-space-collapse: preserve;&quot;&gt;Truy cập trang quản lý doanh thu&lt;/span&gt;&lt;/font&gt;" style="rounded=1;whiteSpace=wrap;html=1;absoluteArcSize=1;arcSize=14;strokeWidth=2;" vertex="1" parent="1">
          <mxGeometry x="1405" y="1678" width="220" height="100" as="geometry" />
        </mxCell>
        <mxCell id="4Q-5mL9npzRY83NDGsn7-135" style="edgeStyle=orthogonalEdgeStyle;rounded=0;orthogonalLoop=1;jettySize=auto;html=1;" edge="1" parent="1" source="4Q-5mL9npzRY83NDGsn7-138" target="4Q-5mL9npzRY83NDGsn7-148">
          <mxGeometry relative="1" as="geometry">
            <mxPoint x="1515" y="2248" as="targetPoint" />
          </mxGeometry>
        </mxCell>
        <mxCell id="4Q-5mL9npzRY83NDGsn7-136" value="" style="edgeStyle=orthogonalEdgeStyle;rounded=0;orthogonalLoop=1;jettySize=auto;html=1;" edge="1" parent="1" source="4Q-5mL9npzRY83NDGsn7-138" target="4Q-5mL9npzRY83NDGsn7-145">
          <mxGeometry relative="1" as="geometry" />
        </mxCell>
        <mxCell id="4Q-5mL9npzRY83NDGsn7-137" value="Không" style="edgeLabel;html=1;align=center;verticalAlign=middle;resizable=0;points=[];" connectable="0" vertex="1" parent="4Q-5mL9npzRY83NDGsn7-136">
          <mxGeometry x="0.4188" y="1" relative="1" as="geometry">
            <mxPoint x="-24" y="1" as="offset" />
          </mxGeometry>
        </mxCell>
        <mxCell id="4Q-5mL9npzRY83NDGsn7-138" value="&lt;font face=&quot;Times New Roman&quot;&gt;&lt;span style=&quot;font-size: 16px;&quot;&gt;Thông tin chính xác ?&lt;/span&gt;&lt;/font&gt;" style="rhombus;whiteSpace=wrap;html=1;" vertex="1" parent="1">
          <mxGeometry x="1345" y="1988" width="340" height="180" as="geometry" />
        </mxCell>
        <mxCell id="4Q-5mL9npzRY83NDGsn7-139" style="edgeStyle=orthogonalEdgeStyle;rounded=0;orthogonalLoop=1;jettySize=auto;html=1;" edge="1" parent="1" source="4Q-5mL9npzRY83NDGsn7-140" target="4Q-5mL9npzRY83NDGsn7-138">
          <mxGeometry relative="1" as="geometry" />
        </mxCell>
        <mxCell id="4Q-5mL9npzRY83NDGsn7-140" value="&lt;font style=&quot;font-size: 17px;&quot; face=&quot;Times New Roman&quot;&gt;Chọn thao tác &quot;Tạo báo cáo&quot;&lt;/font&gt;" style="rounded=1;whiteSpace=wrap;html=1;absoluteArcSize=1;arcSize=14;strokeWidth=2;" vertex="1" parent="1">
          <mxGeometry x="1385" y="1828" width="260" height="100" as="geometry" />
        </mxCell>
        <mxCell id="4Q-5mL9npzRY83NDGsn7-141" value="Admin đã đăng nhập" style="shape=note;whiteSpace=wrap;html=1;backgroundOutline=1;darkOpacity=0.05;" vertex="1" parent="1">
          <mxGeometry x="1035" y="1548" width="190" height="100" as="geometry" />
        </mxCell>
        <mxCell id="4Q-5mL9npzRY83NDGsn7-142" style="edgeStyle=orthogonalEdgeStyle;rounded=0;orthogonalLoop=1;jettySize=auto;html=1;" edge="1" parent="1" source="4Q-5mL9npzRY83NDGsn7-143" target="4Q-5mL9npzRY83NDGsn7-138">
          <mxGeometry relative="1" as="geometry" />
        </mxCell>
        <mxCell id="4Q-5mL9npzRY83NDGsn7-143" value="&lt;font face=&quot;Times New Roman&quot;&gt;&lt;span style=&quot;font-size: 17px;&quot;&gt;Chọn khoảng thời gian cần tạo báo cáo&lt;/span&gt;&lt;/font&gt;" style="rounded=1;whiteSpace=wrap;html=1;absoluteArcSize=1;arcSize=14;strokeWidth=2;" vertex="1" parent="1">
          <mxGeometry x="1020" y="2028" width="260" height="100" as="geometry" />
        </mxCell>
        <mxCell id="4Q-5mL9npzRY83NDGsn7-144" value="" style="edgeStyle=orthogonalEdgeStyle;rounded=0;orthogonalLoop=1;jettySize=auto;html=1;" edge="1" parent="1" source="4Q-5mL9npzRY83NDGsn7-145" target="4Q-5mL9npzRY83NDGsn7-146">
          <mxGeometry relative="1" as="geometry" />
        </mxCell>
        <mxCell id="4Q-5mL9npzRY83NDGsn7-145" value="Báo lỗi" style="whiteSpace=wrap;html=1;" vertex="1" parent="1">
          <mxGeometry x="1775" y="2048" width="120" height="60" as="geometry" />
        </mxCell>
        <mxCell id="4Q-5mL9npzRY83NDGsn7-146" value="" style="ellipse;whiteSpace=wrap;html=1;" vertex="1" parent="1">
          <mxGeometry x="1815" y="2198" width="40" height="40" as="geometry" />
        </mxCell>
        <mxCell id="4Q-5mL9npzRY83NDGsn7-147" value="" style="edgeStyle=orthogonalEdgeStyle;rounded=0;orthogonalLoop=1;jettySize=auto;html=1;" edge="1" parent="1" source="4Q-5mL9npzRY83NDGsn7-148" target="4Q-5mL9npzRY83NDGsn7-149">
          <mxGeometry relative="1" as="geometry" />
        </mxCell>
        <mxCell id="4Q-5mL9npzRY83NDGsn7-148" value="&lt;font face=&quot;Times New Roman&quot;&gt;&lt;span style=&quot;font-size: 17px;&quot;&gt;Xuất báo cáo&lt;/span&gt;&lt;/font&gt;" style="rounded=1;whiteSpace=wrap;html=1;absoluteArcSize=1;arcSize=14;strokeWidth=2;" vertex="1" parent="1">
          <mxGeometry x="1385" y="2258" width="260" height="100" as="geometry" />
        </mxCell>
        <mxCell id="4Q-5mL9npzRY83NDGsn7-149" value="" style="ellipse;whiteSpace=wrap;html=1;rounded=1;arcSize=14;strokeWidth=2;" vertex="1" parent="1">
          <mxGeometry x="1495" y="2406" width="40" height="40" as="geometry" />
        </mxCell>
        <mxCell id="4Q-5mL9npzRY83NDGsn7-150" style="edgeStyle=orthogonalEdgeStyle;rounded=0;orthogonalLoop=1;jettySize=auto;html=1;" edge="1" parent="1" source="4Q-5mL9npzRY83NDGsn7-151" target="4Q-5mL9npzRY83NDGsn7-154">
          <mxGeometry relative="1" as="geometry" />
        </mxCell>
        <mxCell id="4Q-5mL9npzRY83NDGsn7-151" value="" style="strokeWidth=2;html=1;shape=mxgraph.flowchart.start_2;whiteSpace=wrap;" vertex="1" parent="1">
          <mxGeometry x="2500" y="1570" width="40" height="40" as="geometry" />
        </mxCell>
        <mxCell id="4Q-5mL9npzRY83NDGsn7-152" style="edgeStyle=orthogonalEdgeStyle;rounded=0;orthogonalLoop=1;jettySize=auto;html=1;endArrow=none;startFill=0;dashed=1;dashPattern=12 12;" edge="1" parent="1" source="4Q-5mL9npzRY83NDGsn7-165" target="4Q-5mL9npzRY83NDGsn7-151">
          <mxGeometry relative="1" as="geometry">
            <mxPoint x="2220" y="1590" as="sourcePoint" />
          </mxGeometry>
        </mxCell>
        <mxCell id="4Q-5mL9npzRY83NDGsn7-153" style="edgeStyle=orthogonalEdgeStyle;rounded=0;orthogonalLoop=1;jettySize=auto;html=1;" edge="1" parent="1" source="4Q-5mL9npzRY83NDGsn7-154" target="4Q-5mL9npzRY83NDGsn7-161">
          <mxGeometry relative="1" as="geometry">
            <mxPoint x="2520" y="1900" as="targetPoint" />
          </mxGeometry>
        </mxCell>
        <mxCell id="4Q-5mL9npzRY83NDGsn7-154" value="&lt;font face=&quot;Times New Roman, serif&quot;&gt;&lt;span style=&quot;font-size: 17.3333px; white-space-collapse: preserve;&quot;&gt;Truy cập vào trang quản lý vé&lt;/span&gt;&lt;/font&gt;" style="rounded=1;whiteSpace=wrap;html=1;absoluteArcSize=1;arcSize=14;strokeWidth=2;" vertex="1" parent="1">
          <mxGeometry x="2410" y="1670" width="220" height="100" as="geometry" />
        </mxCell>
        <mxCell id="4Q-5mL9npzRY83NDGsn7-155" style="edgeStyle=orthogonalEdgeStyle;rounded=0;orthogonalLoop=1;jettySize=auto;html=1;" edge="1" parent="1" source="4Q-5mL9npzRY83NDGsn7-159" target="4Q-5mL9npzRY83NDGsn7-181">
          <mxGeometry relative="1" as="geometry">
            <mxPoint x="2520" y="2309" as="targetPoint" />
          </mxGeometry>
        </mxCell>
        <mxCell id="4Q-5mL9npzRY83NDGsn7-156" value="&lt;font style=&quot;font-size: 14px;&quot;&gt;Có&lt;/font&gt;" style="edgeLabel;html=1;align=center;verticalAlign=middle;resizable=0;points=[];" connectable="0" vertex="1" parent="4Q-5mL9npzRY83NDGsn7-155">
          <mxGeometry x="-0.0062" y="1" relative="1" as="geometry">
            <mxPoint as="offset" />
          </mxGeometry>
        </mxCell>
        <mxCell id="4Q-5mL9npzRY83NDGsn7-157" value="" style="edgeStyle=orthogonalEdgeStyle;rounded=0;orthogonalLoop=1;jettySize=auto;html=1;" edge="1" parent="1" source="4Q-5mL9npzRY83NDGsn7-159" target="4Q-5mL9npzRY83NDGsn7-175">
          <mxGeometry relative="1" as="geometry" />
        </mxCell>
        <mxCell id="4Q-5mL9npzRY83NDGsn7-158" value="Không" style="edgeLabel;html=1;align=center;verticalAlign=middle;resizable=0;points=[];" connectable="0" vertex="1" parent="4Q-5mL9npzRY83NDGsn7-157">
          <mxGeometry x="0.4188" y="1" relative="1" as="geometry">
            <mxPoint x="-24" y="1" as="offset" />
          </mxGeometry>
        </mxCell>
        <mxCell id="4Q-5mL9npzRY83NDGsn7-159" value="&lt;font face=&quot;Times New Roman&quot;&gt;&lt;span style=&quot;font-size: 16px;&quot;&gt;Vé còn đổi/huỷ được ?&lt;/span&gt;&lt;/font&gt;" style="rhombus;whiteSpace=wrap;html=1;" vertex="1" parent="1">
          <mxGeometry x="2350" y="1977" width="340" height="180" as="geometry" />
        </mxCell>
        <mxCell id="4Q-5mL9npzRY83NDGsn7-160" style="edgeStyle=orthogonalEdgeStyle;rounded=0;orthogonalLoop=1;jettySize=auto;html=1;" edge="1" parent="1" source="4Q-5mL9npzRY83NDGsn7-161" target="4Q-5mL9npzRY83NDGsn7-159">
          <mxGeometry relative="1" as="geometry">
            <mxPoint x="2520" y="1980" as="targetPoint" />
          </mxGeometry>
        </mxCell>
        <mxCell id="4Q-5mL9npzRY83NDGsn7-161" value="&lt;font style=&quot;font-size: 17px;&quot; face=&quot;Times New Roman&quot;&gt;Chọn thao tác &quot;Đổi/Huỷ vé&quot;&lt;/font&gt;" style="rounded=1;whiteSpace=wrap;html=1;absoluteArcSize=1;arcSize=14;strokeWidth=2;" vertex="1" parent="1">
          <mxGeometry x="2390" y="1820" width="260" height="100" as="geometry" />
        </mxCell>
        <mxCell id="4Q-5mL9npzRY83NDGsn7-165" value="Người dùng đã đăng nhập" style="shape=note;whiteSpace=wrap;html=1;backgroundOutline=1;darkOpacity=0.05;" vertex="1" parent="1">
          <mxGeometry x="2040" y="1540" width="190" height="100" as="geometry" />
        </mxCell>
        <mxCell id="4Q-5mL9npzRY83NDGsn7-174" value="" style="edgeStyle=orthogonalEdgeStyle;rounded=0;orthogonalLoop=1;jettySize=auto;html=1;" edge="1" parent="1" source="4Q-5mL9npzRY83NDGsn7-175" target="4Q-5mL9npzRY83NDGsn7-179">
          <mxGeometry relative="1" as="geometry" />
        </mxCell>
        <mxCell id="4Q-5mL9npzRY83NDGsn7-175" value="Thông báo lỗi" style="whiteSpace=wrap;html=1;" vertex="1" parent="1">
          <mxGeometry x="2780" y="2037" width="120" height="60" as="geometry" />
        </mxCell>
        <mxCell id="4Q-5mL9npzRY83NDGsn7-178" value="" style="ellipse;whiteSpace=wrap;html=1;aspect=fixed;" vertex="1" parent="1">
          <mxGeometry x="2500" y="2389" width="40" height="40" as="geometry" />
        </mxCell>
        <mxCell id="4Q-5mL9npzRY83NDGsn7-179" value="" style="ellipse;whiteSpace=wrap;html=1;" vertex="1" parent="1">
          <mxGeometry x="2820" y="2149" width="40" height="40" as="geometry" />
        </mxCell>
        <mxCell id="4Q-5mL9npzRY83NDGsn7-182" style="edgeStyle=orthogonalEdgeStyle;rounded=0;orthogonalLoop=1;jettySize=auto;html=1;" edge="1" parent="1" source="4Q-5mL9npzRY83NDGsn7-181" target="4Q-5mL9npzRY83NDGsn7-178">
          <mxGeometry relative="1" as="geometry" />
        </mxCell>
        <mxCell id="4Q-5mL9npzRY83NDGsn7-181" value="&lt;font style=&quot;font-size: 17px;&quot; face=&quot;Times New Roman&quot;&gt;Thực hiện đổi/huỷ vé&lt;/font&gt;" style="rounded=1;whiteSpace=wrap;html=1;absoluteArcSize=1;arcSize=14;strokeWidth=2;" vertex="1" parent="1">
          <mxGeometry x="2390" y="2229" width="260" height="100" as="geometry" />
        </mxCell>
        <mxCell id="4Q-5mL9npzRY83NDGsn7-183" style="edgeStyle=orthogonalEdgeStyle;rounded=0;orthogonalLoop=1;jettySize=auto;html=1;" edge="1" parent="1" source="4Q-5mL9npzRY83NDGsn7-184" target="4Q-5mL9npzRY83NDGsn7-187">
          <mxGeometry relative="1" as="geometry" />
        </mxCell>
        <mxCell id="4Q-5mL9npzRY83NDGsn7-184" value="" style="strokeWidth=2;html=1;shape=mxgraph.flowchart.start_2;whiteSpace=wrap;" vertex="1" parent="1">
          <mxGeometry x="501" y="2661" width="40" height="40" as="geometry" />
        </mxCell>
        <mxCell id="4Q-5mL9npzRY83NDGsn7-185" style="edgeStyle=orthogonalEdgeStyle;rounded=0;orthogonalLoop=1;jettySize=auto;html=1;endArrow=none;startFill=0;dashed=1;dashPattern=12 12;" edge="1" parent="1" source="4Q-5mL9npzRY83NDGsn7-198" target="4Q-5mL9npzRY83NDGsn7-184">
          <mxGeometry relative="1" as="geometry">
            <mxPoint x="221" y="2681" as="sourcePoint" />
          </mxGeometry>
        </mxCell>
        <mxCell id="4Q-5mL9npzRY83NDGsn7-186" style="edgeStyle=orthogonalEdgeStyle;rounded=0;orthogonalLoop=1;jettySize=auto;html=1;" edge="1" parent="1" source="4Q-5mL9npzRY83NDGsn7-187" target="4Q-5mL9npzRY83NDGsn7-194">
          <mxGeometry relative="1" as="geometry">
            <mxPoint x="521" y="2991" as="targetPoint" />
          </mxGeometry>
        </mxCell>
        <mxCell id="4Q-5mL9npzRY83NDGsn7-187" value="&lt;font face=&quot;Times New Roman, serif&quot;&gt;&lt;span style=&quot;font-size: 17.3333px; white-space-collapse: preserve;&quot;&gt;Truy cập trang tìm kiếm phim&lt;/span&gt;&lt;/font&gt;" style="rounded=1;whiteSpace=wrap;html=1;absoluteArcSize=1;arcSize=14;strokeWidth=2;" vertex="1" parent="1">
          <mxGeometry x="411" y="2761" width="220" height="100" as="geometry" />
        </mxCell>
        <mxCell id="4Q-5mL9npzRY83NDGsn7-188" style="edgeStyle=orthogonalEdgeStyle;rounded=0;orthogonalLoop=1;jettySize=auto;html=1;" edge="1" parent="1" source="4Q-5mL9npzRY83NDGsn7-192" target="4Q-5mL9npzRY83NDGsn7-197">
          <mxGeometry relative="1" as="geometry" />
        </mxCell>
        <mxCell id="4Q-5mL9npzRY83NDGsn7-189" value="&lt;font style=&quot;font-size: 14px;&quot;&gt;Có&lt;/font&gt;" style="edgeLabel;html=1;align=center;verticalAlign=middle;resizable=0;points=[];" connectable="0" vertex="1" parent="4Q-5mL9npzRY83NDGsn7-188">
          <mxGeometry x="-0.0062" y="1" relative="1" as="geometry">
            <mxPoint as="offset" />
          </mxGeometry>
        </mxCell>
        <mxCell id="4Q-5mL9npzRY83NDGsn7-190" value="" style="edgeStyle=orthogonalEdgeStyle;rounded=0;orthogonalLoop=1;jettySize=auto;html=1;" edge="1" parent="1" source="4Q-5mL9npzRY83NDGsn7-192" target="4Q-5mL9npzRY83NDGsn7-194">
          <mxGeometry relative="1" as="geometry">
            <mxPoint x="781" y="3311" as="targetPoint" />
            <Array as="points">
              <mxPoint x="816" y="3212" />
              <mxPoint x="816" y="2971" />
            </Array>
          </mxGeometry>
        </mxCell>
        <mxCell id="4Q-5mL9npzRY83NDGsn7-191" value="Không" style="edgeLabel;html=1;align=center;verticalAlign=middle;resizable=0;points=[];" connectable="0" vertex="1" parent="4Q-5mL9npzRY83NDGsn7-190">
          <mxGeometry x="0.4188" y="1" relative="1" as="geometry">
            <mxPoint x="6" y="122" as="offset" />
          </mxGeometry>
        </mxCell>
        <mxCell id="4Q-5mL9npzRY83NDGsn7-192" value="&lt;font face=&quot;Times New Roman&quot;&gt;&lt;span style=&quot;font-size: 16px;&quot;&gt;Nội dung nhập vào khác rỗng&lt;/span&gt;&lt;/font&gt;" style="rhombus;whiteSpace=wrap;html=1;" vertex="1" parent="1">
          <mxGeometry x="351" y="3122" width="340" height="180" as="geometry" />
        </mxCell>
        <mxCell id="4Q-5mL9npzRY83NDGsn7-193" style="edgeStyle=orthogonalEdgeStyle;rounded=0;orthogonalLoop=1;jettySize=auto;html=1;" edge="1" parent="1" source="4Q-5mL9npzRY83NDGsn7-194" target="4Q-5mL9npzRY83NDGsn7-192">
          <mxGeometry relative="1" as="geometry">
            <mxPoint x="521" y="3071" as="targetPoint" />
          </mxGeometry>
        </mxCell>
        <mxCell id="4Q-5mL9npzRY83NDGsn7-194" value="&lt;font style=&quot;font-size: 17px;&quot; face=&quot;Times New Roman&quot;&gt;Nhập nội dung tìm kiếm&lt;/font&gt;" style="rounded=1;whiteSpace=wrap;html=1;absoluteArcSize=1;arcSize=14;strokeWidth=2;" vertex="1" parent="1">
          <mxGeometry x="391" y="2921" width="260" height="100" as="geometry" />
        </mxCell>
        <mxCell id="4Q-5mL9npzRY83NDGsn7-197" value="&lt;font style=&quot;font-size: 16px;&quot;&gt;Trả về danh sách phim&lt;/font&gt;" style="rounded=1;whiteSpace=wrap;html=1;absoluteArcSize=1;arcSize=14;strokeWidth=2;" vertex="1" parent="1">
          <mxGeometry x="414" y="3380" width="220" height="100" as="geometry" />
        </mxCell>
        <mxCell id="4Q-5mL9npzRY83NDGsn7-198" value="Người dùng đã đăng nhập" style="shape=note;whiteSpace=wrap;html=1;backgroundOutline=1;darkOpacity=0.05;" vertex="1" parent="1">
          <mxGeometry x="41" y="2631" width="190" height="100" as="geometry" />
        </mxCell>
        <mxCell id="4Q-5mL9npzRY83NDGsn7-201" value="" style="edgeStyle=orthogonalEdgeStyle;rounded=0;orthogonalLoop=1;jettySize=auto;html=1;" edge="1" parent="1" source="4Q-5mL9npzRY83NDGsn7-197" target="4Q-5mL9npzRY83NDGsn7-211">
          <mxGeometry relative="1" as="geometry">
            <mxPoint x="519" y="3511.71" as="sourcePoint" />
            <mxPoint x="519" y="3571.71" as="targetPoint" />
          </mxGeometry>
        </mxCell>
        <mxCell id="4Q-5mL9npzRY83NDGsn7-211" value="" style="ellipse;whiteSpace=wrap;html=1;aspect=fixed;" vertex="1" parent="1">
          <mxGeometry x="504" y="3540" width="40" height="40" as="geometry" />
        </mxCell>
        <mxCell id="4Q-5mL9npzRY83NDGsn7-214" style="edgeStyle=orthogonalEdgeStyle;rounded=0;orthogonalLoop=1;jettySize=auto;html=1;" edge="1" parent="1" source="4Q-5mL9npzRY83NDGsn7-215" target="4Q-5mL9npzRY83NDGsn7-218">
          <mxGeometry relative="1" as="geometry" />
        </mxCell>
        <mxCell id="4Q-5mL9npzRY83NDGsn7-215" value="" style="strokeWidth=2;html=1;shape=mxgraph.flowchart.start_2;whiteSpace=wrap;" vertex="1" parent="1">
          <mxGeometry x="1520" y="2623" width="40" height="40" as="geometry" />
        </mxCell>
        <mxCell id="4Q-5mL9npzRY83NDGsn7-216" style="edgeStyle=orthogonalEdgeStyle;rounded=0;orthogonalLoop=1;jettySize=auto;html=1;endArrow=none;startFill=0;dashed=1;dashPattern=12 12;" edge="1" parent="1" source="4Q-5mL9npzRY83NDGsn7-225" target="4Q-5mL9npzRY83NDGsn7-215">
          <mxGeometry relative="1" as="geometry">
            <mxPoint x="1240" y="2643" as="sourcePoint" />
          </mxGeometry>
        </mxCell>
        <mxCell id="4Q-5mL9npzRY83NDGsn7-217" style="edgeStyle=orthogonalEdgeStyle;rounded=0;orthogonalLoop=1;jettySize=auto;html=1;" edge="1" parent="1" source="4Q-5mL9npzRY83NDGsn7-218" target="4Q-5mL9npzRY83NDGsn7-224">
          <mxGeometry relative="1" as="geometry">
            <mxPoint x="1540" y="2953" as="targetPoint" />
          </mxGeometry>
        </mxCell>
        <mxCell id="4Q-5mL9npzRY83NDGsn7-218" value="&lt;font face=&quot;Times New Roman, serif&quot;&gt;&lt;span style=&quot;font-size: 17.3333px; white-space-collapse: preserve;&quot;&gt;Truy cập trang đánh giá phim&lt;/span&gt;&lt;/font&gt;" style="rounded=1;whiteSpace=wrap;html=1;absoluteArcSize=1;arcSize=14;strokeWidth=2;" vertex="1" parent="1">
          <mxGeometry x="1430" y="2723" width="220" height="100" as="geometry" />
        </mxCell>
        <mxCell id="4Q-5mL9npzRY83NDGsn7-219" style="edgeStyle=orthogonalEdgeStyle;rounded=0;orthogonalLoop=1;jettySize=auto;html=1;" edge="1" parent="1" source="4Q-5mL9npzRY83NDGsn7-222" target="4Q-5mL9npzRY83NDGsn7-232">
          <mxGeometry relative="1" as="geometry">
            <mxPoint x="1540" y="3293" as="targetPoint" />
          </mxGeometry>
        </mxCell>
        <mxCell id="4Q-5mL9npzRY83NDGsn7-220" value="" style="edgeStyle=orthogonalEdgeStyle;rounded=0;orthogonalLoop=1;jettySize=auto;html=1;" edge="1" parent="1" source="4Q-5mL9npzRY83NDGsn7-222" target="4Q-5mL9npzRY83NDGsn7-224">
          <mxGeometry relative="1" as="geometry">
            <mxPoint x="1800" y="3123" as="targetPoint" />
            <Array as="points">
              <mxPoint x="1825" y="3123" />
              <mxPoint x="1825" y="2923" />
            </Array>
          </mxGeometry>
        </mxCell>
        <mxCell id="4Q-5mL9npzRY83NDGsn7-221" value="Không" style="edgeLabel;html=1;align=center;verticalAlign=middle;resizable=0;points=[];" connectable="0" vertex="1" parent="4Q-5mL9npzRY83NDGsn7-220">
          <mxGeometry x="0.4188" y="1" relative="1" as="geometry">
            <mxPoint x="19" y="99" as="offset" />
          </mxGeometry>
        </mxCell>
        <mxCell id="4Q-5mL9npzRY83NDGsn7-222" value="&lt;font face=&quot;Times New Roman&quot;&gt;&lt;span style=&quot;font-size: 16px;&quot;&gt;Nội dung đánh giá hợp lệ ?&lt;/span&gt;&lt;/font&gt;" style="rhombus;whiteSpace=wrap;html=1;" vertex="1" parent="1">
          <mxGeometry x="1370" y="3033" width="340" height="180" as="geometry" />
        </mxCell>
        <mxCell id="4Q-5mL9npzRY83NDGsn7-223" style="edgeStyle=orthogonalEdgeStyle;rounded=0;orthogonalLoop=1;jettySize=auto;html=1;" edge="1" parent="1" source="4Q-5mL9npzRY83NDGsn7-224" target="4Q-5mL9npzRY83NDGsn7-222">
          <mxGeometry relative="1" as="geometry" />
        </mxCell>
        <mxCell id="4Q-5mL9npzRY83NDGsn7-224" value="&lt;font style=&quot;font-size: 17px;&quot; face=&quot;Times New Roman&quot;&gt;Nhập nội dung đánh giá&lt;/font&gt;" style="rounded=1;whiteSpace=wrap;html=1;absoluteArcSize=1;arcSize=14;strokeWidth=2;" vertex="1" parent="1">
          <mxGeometry x="1410" y="2873" width="260" height="100" as="geometry" />
        </mxCell>
        <mxCell id="4Q-5mL9npzRY83NDGsn7-225" value="Admin đã đăng nhập" style="shape=note;whiteSpace=wrap;html=1;backgroundOutline=1;darkOpacity=0.05;" vertex="1" parent="1">
          <mxGeometry x="1060" y="2593" width="190" height="100" as="geometry" />
        </mxCell>
        <mxCell id="4Q-5mL9npzRY83NDGsn7-231" value="" style="edgeStyle=orthogonalEdgeStyle;rounded=0;orthogonalLoop=1;jettySize=auto;html=1;" edge="1" parent="1" source="4Q-5mL9npzRY83NDGsn7-232" target="4Q-5mL9npzRY83NDGsn7-233">
          <mxGeometry relative="1" as="geometry" />
        </mxCell>
        <mxCell id="4Q-5mL9npzRY83NDGsn7-232" value="&lt;font face=&quot;Times New Roman&quot;&gt;&lt;span style=&quot;font-size: 17px;&quot;&gt;Hệ thống lưu thông tin&lt;/span&gt;&lt;/font&gt;" style="rounded=1;whiteSpace=wrap;html=1;absoluteArcSize=1;arcSize=14;strokeWidth=2;" vertex="1" parent="1">
          <mxGeometry x="1410" y="3263" width="260" height="100" as="geometry" />
        </mxCell>
        <mxCell id="4Q-5mL9npzRY83NDGsn7-233" value="" style="ellipse;whiteSpace=wrap;html=1;rounded=1;arcSize=14;strokeWidth=2;" vertex="1" parent="1">
          <mxGeometry x="1520" y="3451" width="40" height="40" as="geometry" />
        </mxCell>
        <mxCell id="4Q-5mL9npzRY83NDGsn7-234" style="edgeStyle=orthogonalEdgeStyle;rounded=0;orthogonalLoop=1;jettySize=auto;html=1;" edge="1" parent="1" source="4Q-5mL9npzRY83NDGsn7-235" target="4Q-5mL9npzRY83NDGsn7-238">
          <mxGeometry relative="1" as="geometry" />
        </mxCell>
        <mxCell id="4Q-5mL9npzRY83NDGsn7-235" value="" style="strokeWidth=2;html=1;shape=mxgraph.flowchart.start_2;whiteSpace=wrap;" vertex="1" parent="1">
          <mxGeometry x="2540" y="2643" width="40" height="40" as="geometry" />
        </mxCell>
        <mxCell id="4Q-5mL9npzRY83NDGsn7-236" style="edgeStyle=orthogonalEdgeStyle;rounded=0;orthogonalLoop=1;jettySize=auto;html=1;endArrow=none;startFill=0;dashed=1;dashPattern=12 12;" edge="1" parent="1" source="4Q-5mL9npzRY83NDGsn7-246" target="4Q-5mL9npzRY83NDGsn7-235">
          <mxGeometry relative="1" as="geometry">
            <mxPoint x="2260" y="2663" as="sourcePoint" />
          </mxGeometry>
        </mxCell>
        <mxCell id="4Q-5mL9npzRY83NDGsn7-237" style="edgeStyle=orthogonalEdgeStyle;rounded=0;orthogonalLoop=1;jettySize=auto;html=1;" edge="1" parent="1" source="4Q-5mL9npzRY83NDGsn7-238" target="4Q-5mL9npzRY83NDGsn7-245">
          <mxGeometry relative="1" as="geometry">
            <mxPoint x="2560" y="2973" as="targetPoint" />
          </mxGeometry>
        </mxCell>
        <mxCell id="4Q-5mL9npzRY83NDGsn7-238" value="&lt;font face=&quot;Times New Roman, serif&quot;&gt;&lt;span style=&quot;font-size: 17.3333px; white-space-collapse: preserve;&quot;&gt;Truy cập trang cá nhân&lt;/span&gt;&lt;/font&gt;" style="rounded=1;whiteSpace=wrap;html=1;absoluteArcSize=1;arcSize=14;strokeWidth=2;" vertex="1" parent="1">
          <mxGeometry x="2450" y="2743" width="220" height="100" as="geometry" />
        </mxCell>
        <mxCell id="4Q-5mL9npzRY83NDGsn7-239" style="edgeStyle=orthogonalEdgeStyle;rounded=0;orthogonalLoop=1;jettySize=auto;html=1;" edge="1" parent="1" source="4Q-5mL9npzRY83NDGsn7-243" target="4Q-5mL9npzRY83NDGsn7-252">
          <mxGeometry relative="1" as="geometry">
            <mxPoint x="2560" y="3382" as="targetPoint" />
          </mxGeometry>
        </mxCell>
        <mxCell id="4Q-5mL9npzRY83NDGsn7-240" value="&lt;font style=&quot;font-size: 14px;&quot;&gt;Có&lt;/font&gt;" style="edgeLabel;html=1;align=center;verticalAlign=middle;resizable=0;points=[];" connectable="0" vertex="1" parent="4Q-5mL9npzRY83NDGsn7-239">
          <mxGeometry x="-0.0062" y="1" relative="1" as="geometry">
            <mxPoint as="offset" />
          </mxGeometry>
        </mxCell>
        <mxCell id="4Q-5mL9npzRY83NDGsn7-241" value="" style="edgeStyle=orthogonalEdgeStyle;rounded=0;orthogonalLoop=1;jettySize=auto;html=1;" edge="1" parent="1" source="4Q-5mL9npzRY83NDGsn7-243" target="4Q-5mL9npzRY83NDGsn7-248">
          <mxGeometry relative="1" as="geometry" />
        </mxCell>
        <mxCell id="4Q-5mL9npzRY83NDGsn7-242" value="Không" style="edgeLabel;html=1;align=center;verticalAlign=middle;resizable=0;points=[];" connectable="0" vertex="1" parent="4Q-5mL9npzRY83NDGsn7-241">
          <mxGeometry x="0.4188" y="1" relative="1" as="geometry">
            <mxPoint x="-24" y="1" as="offset" />
          </mxGeometry>
        </mxCell>
        <mxCell id="4Q-5mL9npzRY83NDGsn7-243" value="&lt;font face=&quot;Times New Roman&quot;&gt;&lt;span style=&quot;font-size: 16px;&quot;&gt;Thông tin mới hợp lệ ?&lt;/span&gt;&lt;/font&gt;" style="rhombus;whiteSpace=wrap;html=1;" vertex="1" parent="1">
          <mxGeometry x="2390" y="3050" width="340" height="180" as="geometry" />
        </mxCell>
        <mxCell id="4Q-5mL9npzRY83NDGsn7-244" style="edgeStyle=orthogonalEdgeStyle;rounded=0;orthogonalLoop=1;jettySize=auto;html=1;" edge="1" parent="1" source="4Q-5mL9npzRY83NDGsn7-245" target="4Q-5mL9npzRY83NDGsn7-243">
          <mxGeometry relative="1" as="geometry">
            <mxPoint x="2560" y="3053" as="targetPoint" />
          </mxGeometry>
        </mxCell>
        <mxCell id="4Q-5mL9npzRY83NDGsn7-245" value="&lt;font face=&quot;Times New Roman&quot;&gt;&lt;span style=&quot;font-size: 17px;&quot;&gt;Nhập thông tin cần sửa&lt;/span&gt;&lt;/font&gt;" style="rounded=1;whiteSpace=wrap;html=1;absoluteArcSize=1;arcSize=14;strokeWidth=2;" vertex="1" parent="1">
          <mxGeometry x="2430" y="2893" width="260" height="100" as="geometry" />
        </mxCell>
        <mxCell id="4Q-5mL9npzRY83NDGsn7-246" value="Người dùng đã đăng nhập" style="shape=note;whiteSpace=wrap;html=1;backgroundOutline=1;darkOpacity=0.05;" vertex="1" parent="1">
          <mxGeometry x="2080" y="2613" width="190" height="100" as="geometry" />
        </mxCell>
        <mxCell id="4Q-5mL9npzRY83NDGsn7-247" value="" style="edgeStyle=orthogonalEdgeStyle;rounded=0;orthogonalLoop=1;jettySize=auto;html=1;" edge="1" parent="1" source="4Q-5mL9npzRY83NDGsn7-248" target="4Q-5mL9npzRY83NDGsn7-250">
          <mxGeometry relative="1" as="geometry" />
        </mxCell>
        <mxCell id="4Q-5mL9npzRY83NDGsn7-248" value="Thông báo lỗi" style="whiteSpace=wrap;html=1;" vertex="1" parent="1">
          <mxGeometry x="2820" y="3110" width="120" height="60" as="geometry" />
        </mxCell>
        <mxCell id="4Q-5mL9npzRY83NDGsn7-249" value="" style="ellipse;whiteSpace=wrap;html=1;aspect=fixed;" vertex="1" parent="1">
          <mxGeometry x="2540" y="3462" width="40" height="40" as="geometry" />
        </mxCell>
        <mxCell id="4Q-5mL9npzRY83NDGsn7-250" value="" style="ellipse;whiteSpace=wrap;html=1;" vertex="1" parent="1">
          <mxGeometry x="2860" y="3222" width="40" height="40" as="geometry" />
        </mxCell>
        <mxCell id="4Q-5mL9npzRY83NDGsn7-251" style="edgeStyle=orthogonalEdgeStyle;rounded=0;orthogonalLoop=1;jettySize=auto;html=1;" edge="1" parent="1" source="4Q-5mL9npzRY83NDGsn7-252" target="4Q-5mL9npzRY83NDGsn7-249">
          <mxGeometry relative="1" as="geometry" />
        </mxCell>
        <mxCell id="4Q-5mL9npzRY83NDGsn7-252" value="&lt;font style=&quot;font-size: 17px;&quot; face=&quot;Times New Roman&quot;&gt;Hệ thống cập nhật thông tin&lt;/font&gt;" style="rounded=1;whiteSpace=wrap;html=1;absoluteArcSize=1;arcSize=14;strokeWidth=2;" vertex="1" parent="1">
          <mxGeometry x="2430" y="3302" width="260" height="100" as="geometry" />
        </mxCell>
        <mxCell id="4Q-5mL9npzRY83NDGsn7-254" style="edgeStyle=orthogonalEdgeStyle;rounded=0;orthogonalLoop=1;jettySize=auto;html=1;" edge="1" parent="1" source="4Q-5mL9npzRY83NDGsn7-253" target="4Q-5mL9npzRY83NDGsn7-192">
          <mxGeometry relative="1" as="geometry" />
        </mxCell>
        <mxCell id="4Q-5mL9npzRY83NDGsn7-253" value="&lt;font face=&quot;Times New Roman&quot; style=&quot;font-size: 16px;&quot;&gt;Chọn danh mục phim&lt;/font&gt;" style="rounded=1;whiteSpace=wrap;html=1;absoluteArcSize=1;arcSize=14;strokeWidth=2;" vertex="1" parent="1">
          <mxGeometry x="50" y="3162" width="220" height="100" as="geometry" />
        </mxCell>
        <mxCell id="4Q-5mL9npzRY83NDGsn7-257" value="" style="edgeStyle=none;orthogonalLoop=1;jettySize=auto;html=1;rounded=0;" edge="1" parent="1">
          <mxGeometry width="100" relative="1" as="geometry">
            <mxPoint x="1090" y="2090" as="sourcePoint" />
            <mxPoint x="1190" y="2090" as="targetPoint" />
            <Array as="points" />
          </mxGeometry>
        </mxCell>
        <mxCell id="4Q-5mL9npzRY83NDGsn7-259" value="&lt;h1 style=&quot;margin-top: 0px;&quot;&gt;Usecase 01&lt;/h1&gt;" style="text;html=1;whiteSpace=wrap;overflow=hidden;rounded=0;" vertex="1" parent="1">
          <mxGeometry x="280" width="180" height="120" as="geometry" />
        </mxCell>
        <mxCell id="4Q-5mL9npzRY83NDGsn7-260" value="&lt;h1 style=&quot;margin-top: 0px;&quot;&gt;Usecase 02&lt;/h1&gt;" style="text;html=1;whiteSpace=wrap;overflow=hidden;rounded=0;" vertex="1" parent="1">
          <mxGeometry x="1480" width="180" height="120" as="geometry" />
        </mxCell>
        <mxCell id="4Q-5mL9npzRY83NDGsn7-261" value="&lt;h1 style=&quot;margin-top: 0px;&quot;&gt;Usecase 03&lt;/h1&gt;" style="text;html=1;whiteSpace=wrap;overflow=hidden;rounded=0;" vertex="1" parent="1">
          <mxGeometry x="2480" width="180" height="120" as="geometry" />
        </mxCell>
        <mxCell id="4Q-5mL9npzRY83NDGsn7-262" value="&lt;h1 style=&quot;margin-top: 0px;&quot;&gt;Usecase 04&lt;/h1&gt;" style="text;html=1;whiteSpace=wrap;overflow=hidden;rounded=0;" vertex="1" parent="1">
          <mxGeometry x="495" y="1551" width="180" height="120" as="geometry" />
        </mxCell>
        <mxCell id="4Q-5mL9npzRY83NDGsn7-263" value="&lt;h1 style=&quot;margin-top: 0px;&quot;&gt;Usecase 08&lt;/h1&gt;" style="text;html=1;whiteSpace=wrap;overflow=hidden;rounded=0;" vertex="1" parent="1">
          <mxGeometry x="1465" y="2583" width="180" height="120" as="geometry" />
        </mxCell>
        <mxCell id="4Q-5mL9npzRY83NDGsn7-264" value="&lt;h1 style=&quot;margin-top: 0px;&quot;&gt;Usecase 05&lt;/h1&gt;" style="text;html=1;whiteSpace=wrap;overflow=hidden;rounded=0;" vertex="1" parent="1">
          <mxGeometry x="1460" y="1528" width="180" height="120" as="geometry" />
        </mxCell>
        <mxCell id="4Q-5mL9npzRY83NDGsn7-265" value="&lt;h1 style=&quot;margin-top: 0px;&quot;&gt;Usecase 06&lt;/h1&gt;" style="text;html=1;whiteSpace=wrap;overflow=hidden;rounded=0;" vertex="1" parent="1">
          <mxGeometry x="2460" y="1509" width="180" height="120" as="geometry" />
        </mxCell>
        <mxCell id="4Q-5mL9npzRY83NDGsn7-266" value="&lt;h1 style=&quot;margin-top: 0px;&quot;&gt;Usecase 07&lt;/h1&gt;" style="text;html=1;whiteSpace=wrap;overflow=hidden;rounded=0;" vertex="1" parent="1">
          <mxGeometry x="471" y="2621" width="180" height="120" as="geometry" />
        </mxCell>
        <mxCell id="4Q-5mL9npzRY83NDGsn7-267" value="&lt;h1 style=&quot;margin-top: 0px;&quot;&gt;Usecase 09&lt;/h1&gt;" style="text;html=1;whiteSpace=wrap;overflow=hidden;rounded=0;" vertex="1" parent="1">
          <mxGeometry x="2510" y="2593" width="180" height="120" as="geometry" />
        </mxCell>
      </root>
    </mxGraphModel>
  </diagram>
</mxfile>
